<svg xmlns="http://www.w3.org/2000/svg" fill="none" viewBox="0 0 48 48"><path fill="#fff" d="M37 6a2 2 0 0 1 2 2v32a2 2 0 0 1-2 2H11a2 2 0 0 1-2-2V8a2 2 0 0 1 2-2h26z"/><path fill="#605E5C" d="M37 6a2 2 0 0 1 2 2v32a2 2 0 0 1-2 2H11a2 2 0 0 1-2-2V8a2 2 0 0 1 2-2h26zm0-1H11a3 3 0 0 0-3 3v32a3 3 0 0 0 3 3h26a3 3 0 0 0 3-3V8a3 3 0 0 0-3-3z" opacity=".64"/><path fill="#C8C6C4" d="M33 14a1 1 0 0 1 1 1v14.59L29.59 34H15a1 1 0 0 1-1-1V18.41L18.41 14H33zm0-1H18l-5 5v15a2 2 0 0 0 2 2h15l5-5V15a2 2 0 0 0-2-2z"/><path fill="#FED912" d="M30.5 19h-8a.5.5 0 0 0 0 1h8a.5.5 0 0 0 0-1z"/><path fill="#ECCF35" d="M19.5 19h-2a.5.5 0 0 0 0 1h2a.5.5 0 0 0 0-1z"/><path fill="#F18C0A" d="M30.5 22h-8a.5.5 0 0 0 0 1h8a.5.5 0 0 0 0-1z"/><path fill="#E25A01" d="M19.5 22h-2a.5.5 0 0 0 0 1h2a.5.5 0 0 0 0-1z"/><path fill="#D83B01" d="M30.5 25h-8a.5.5 0 0 0 0 1h8a.5.5 0 0 0 0-1z"/><path fill="#BF3207" d="M19.5 25h-2a.5.5 0 0 0 0 1h2a.5.5 0 0 0 0-1z"/><path fill="#974B8B" d="M30.5 28h-8a.5.5 0 0 0 0 1h8a.5.5 0 0 0 0-1z"/><path fill="#773C6E" d="M19.5 28h-2a.5.5 0 0 0 0 1h2a.5.5 0 0 0 0-1z"/></svg>