<svg xmlns="http://www.w3.org/2000/svg" fill="none" viewBox="0 0 48 48"><path fill="#fff" d="M13.5 44h29c.275 0 .5-.225.5-.5V14h-8.5c-.827 0-1.5-.673-1.5-1.5V4H13.5c-.275 0-.5.225-.5.5v39c0 .275.225.5.5.5z"/><path fill="#fff" d="M42.293 13 34 4.707V12.5c0 .275.225.5.5.5h7.793z"/><path fill="#605E5C" fill-rule="evenodd" d="m43.56 12.854-9.414-9.415A1.51 1.51 0 0 0 33.086 3H13.5c-.827 0-1.5.673-1.5 1.5v39c0 .827.673 1.5 1.5 1.5h29c.827 0 1.5-.673 1.5-1.5V13.914c0-.4-.156-.777-.44-1.06zM34 4.707 42.293 13H34.5a.501.501 0 0 1-.5-.5V4.707zM13.5 44h29c.275 0 .5-.225.5-.5V14h-8.5c-.827 0-1.5-.673-1.5-1.5V4H13.5c-.275 0-.5.225-.5.5v39a.5.5 0 0 0 .5.5z" clip-rule="evenodd" opacity=".64"/><path fill="#C8C6C4" fill-rule="evenodd" d="M24 33h15.5a.5.5 0 0 0 0-1H24v1zm0 3h15.5a.5.5 0 0 0 0-1H24v1zm-7.5 2h23a.5.5 0 0 1 0 1h-23a.5.5 0 0 1 0-1z" clip-rule="evenodd"/><path fill="#81C8C3" d="M24 30h15a1 1 0 0 0 1-1V19a1 1 0 0 0-1-1H24v12z"/><path fill="#03787C" d="M6 37h18a2 2 0 0 0 2-2V17a2 2 0 0 0-2-2H6a2 2 0 0 0-2 2v18a2 2 0 0 0 2 2z"/><path fill="#fff" d="M11.596 25.755c-.518-.343-.918-.749-1.196-1.219-.278-.468-.416-1.024-.416-1.665 0-.856.258-1.575.774-2.157.516-.582 1.203-1.013 2.06-1.294.855-.28 1.793-.42 2.813-.42 1.562 0 2.797.167 3.706.5v2.52a5.913 5.913 0 0 0-1.677-.66 8.433 8.433 0 0 0-1.96-.227c-.81 0-1.483.137-2.015.412-.534.272-.8.662-.8 1.165 0 .315.114.59.338.826.227.237.53.445.913.628.382.182.952.425 1.71.727.131.044.213.075.246.094.895.353 1.614.695 2.157 1.024.542.332.967.744 1.274 1.238.307.494.46 1.115.46 1.864 0 .919-.24 1.667-.725 2.246-.484.579-1.13.998-1.94 1.256S15.585 33 14.552 33a15.16 15.16 0 0 1-2.505-.198c-.788-.132-1.465-.321-2.034-.567v-2.662c.556.397 1.242.711 2.06.944.818.233 1.571.35 2.264.35.908 0 1.592-.14 2.054-.421.46-.28.69-.675.69-1.184 0-.346-.129-.649-.387-.907s-.614-.497-1.067-.717c-.456-.22-1.127-.51-2.016-.869-.823-.333-1.494-.67-2.015-1.014z"/></svg>